# xmcd CD database file
#
# Track frame offsets:
#	150
#	18579
#	39984
#	61097
#	72013
#	89110
#	109846
#	128244
#	151554
#	174130
#
# Disc length: 2517 seconds
#
# Revision: 0
# Processed by: cddbd v1.5.1PL0 Copyright (c) Steve Scherf et al.
# Submitted via: CDex 1.51
#
DISCID=7409d30a
DTITLE=中村まり - Traveler And Stranger
DYEAR=2002
DGENRE=Rock
TTITLE0=Stranger
TTITLE1=Let Me Be Dead
TTITLE2=Too Easy Give Up
TTITLE3=Sleep Well
TTITLE4=Complicated
TTITLE5=Foolish Game
TTITLE6=Tomorrow I'll Be Gone
TTITLE7=All We Have To Know
TTITLE8=Deserted Woman
TTITLE9=Don't Think Twice, It's All Right
EXTD=YEAR: 2002
EXTT0=
EXTT1=
EXTT2=
EXTT3=
EXTT4=
EXTT5=
EXTT6=
EXTT7=
EXTT8=
EXTT9=
PLAYORDER=
